<svg xmlns="http://www.w3.org/2000/svg" width="1040" height="945" viewBox="0 0 1040 945">
<style>text{font-family:Arial,DejaVu Sans,sans-serif;fill:#1f2933}.small{font-size:12px}.label{font-size:13px}.title{font-size:22px;font-weight:700}.axis{stroke:#7b8794;stroke-width:1}.grid{stroke:#d9e2ec;stroke-width:1}</style>
<rect width="100%" height="100%" fill="#ffffff"/>
<text class="title" x="520" y="36" text-anchor="middle">Correlation heatmap of selected numeric features</text>
<text class="small" x="520" y="58" text-anchor="middle">Features selected by ANOVA F-score against class labels</text>
<text class="small" x="266.0" y="198" text-anchor="end" transform="rotate(-55 266.0,198)">act_data_pkt_fwd</text>
<text class="small" x="242" y="230.0" text-anchor="end">act_data_pkt_fwd</text>
<text class="small" x="298.0" y="198" text-anchor="end" transform="rotate(-55 298.0,198)">Subflow Fwd Bytes</text>
<text class="small" x="242" y="262.0" text-anchor="end">Subflow Fwd Bytes</text>
<text class="small" x="330.0" y="198" text-anchor="end" transform="rotate(-55 330.0,198)">Total Length of Fwd P...</text>
<text class="small" x="242" y="294.0" text-anchor="end">Total Length of Fwd Packets</text>
<text class="small" x="362.0" y="198" text-anchor="end" transform="rotate(-55 362.0,198)">Avg Fwd Segment Size</text>
<text class="small" x="242" y="326.0" text-anchor="end">Avg Fwd Segment Size</text>
<text class="small" x="394.0" y="198" text-anchor="end" transform="rotate(-55 394.0,198)">Average Packet Size</text>
<text class="small" x="242" y="358.0" text-anchor="end">Average Packet Size</text>
<text class="small" x="426.0" y="198" text-anchor="end" transform="rotate(-55 426.0,198)">Fwd Packet Length Min</text>
<text class="small" x="242" y="390.0" text-anchor="end">Fwd Packet Length Min</text>
<text class="small" x="458.0" y="198" text-anchor="end" transform="rotate(-55 458.0,198)">Subflow Fwd Packets</text>
<text class="small" x="242" y="422.0" text-anchor="end">Subflow Fwd Packets</text>
<text class="small" x="490.0" y="198" text-anchor="end" transform="rotate(-55 490.0,198)">ACK Flag Count</text>
<text class="small" x="242" y="454.0" text-anchor="end">ACK Flag Count</text>
<text class="small" x="522.0" y="198" text-anchor="end" transform="rotate(-55 522.0,198)">Flow Bytes/s</text>
<text class="small" x="242" y="486.0" text-anchor="end">Flow Bytes/s</text>
<text class="small" x="554.0" y="198" text-anchor="end" transform="rotate(-55 554.0,198)">Bwd Packets/s</text>
<text class="small" x="242" y="518.0" text-anchor="end">Bwd Packets/s</text>
<text class="small" x="586.0" y="198" text-anchor="end" transform="rotate(-55 586.0,198)">Bwd Packet Length Std</text>
<text class="small" x="242" y="550.0" text-anchor="end">Bwd Packet Length Std</text>
<text class="small" x="618.0" y="198" text-anchor="end" transform="rotate(-55 618.0,198)">Bwd Packet Length Mean</text>
<text class="small" x="242" y="582.0" text-anchor="end">Bwd Packet Length Mean</text>
<text class="small" x="650.0" y="198" text-anchor="end" transform="rotate(-55 650.0,198)">Bwd Packet Length Max</text>
<text class="small" x="242" y="614.0" text-anchor="end">Bwd Packet Length Max</text>
<text class="small" x="682.0" y="198" text-anchor="end" transform="rotate(-55 682.0,198)">Avg Bwd Segment Size</text>
<text class="small" x="242" y="646.0" text-anchor="end">Avg Bwd Segment Size</text>
<text class="small" x="714.0" y="198" text-anchor="end" transform="rotate(-55 714.0,198)">Flow Packets/s</text>
<text class="small" x="242" y="678.0" text-anchor="end">Flow Packets/s</text>
<text class="small" x="746.0" y="198" text-anchor="end" transform="rotate(-55 746.0,198)">Fwd Packets/s</text>
<text class="small" x="242" y="710.0" text-anchor="end">Fwd Packets/s</text>
<text class="small" x="778.0" y="198" text-anchor="end" transform="rotate(-55 778.0,198)">Packet Length Variance</text>
<text class="small" x="242" y="742.0" text-anchor="end">Packet Length Variance</text>
<text class="small" x="810.0" y="198" text-anchor="end" transform="rotate(-55 810.0,198)">Init_Win_bytes_forward</text>
<text class="small" x="242" y="774.0" text-anchor="end">Init_Win_bytes_forward</text>
<text class="small" x="842.0" y="198" text-anchor="end" transform="rotate(-55 842.0,198)">Fwd Packet Length Max</text>
<text class="small" x="242" y="806.0" text-anchor="end">Fwd Packet Length Max</text>
<text class="small" x="874.0" y="198" text-anchor="end" transform="rotate(-55 874.0,198)">Down/Up Ratio</text>
<text class="small" x="242" y="838.0" text-anchor="end">Down/Up Ratio</text>
<rect x="250" y="210" width="32" height="32" fill="#b2182b" stroke="#ffffff" stroke-width="1"/>
<rect x="282" y="210" width="32" height="32" fill="#b31c2e" stroke="#ffffff" stroke-width="1"/>
<rect x="314" y="210" width="32" height="32" fill="#b31c2e" stroke="#ffffff" stroke-width="1"/>
<rect x="346" y="210" width="32" height="32" fill="#fdfefe" stroke="#ffffff" stroke-width="1"/>
<rect x="378" y="210" width="32" height="32" fill="#fdfefe" stroke="#ffffff" stroke-width="1"/>
<rect x="410" y="210" width="32" height="32" fill="#fefefe" stroke="#ffffff" stroke-width="1"/>
<rect x="442" y="210" width="32" height="32" fill="#bc3747" stroke="#ffffff" stroke-width="1"/>
<rect x="474" y="210" width="32" height="32" fill="#fefefe" stroke="#ffffff" stroke-width="1"/>
<rect x="506" y="210" width="32" height="32" fill="#fdfefe" stroke="#ffffff" stroke-width="1"/>
<rect x="538" y="210" width="32" height="32" fill="#fefefe" stroke="#ffffff" stroke-width="1"/>
<rect x="570" y="210" width="32" height="32" fill="#fefefe" stroke="#ffffff" stroke-width="1"/>
<rect x="602" y="210" width="32" height="32" fill="#fefefe" stroke="#ffffff" stroke-width="1"/>
<rect x="634" y="210" width="32" height="32" fill="#fefefe" stroke="#ffffff" stroke-width="1"/>
<rect x="666" y="210" width="32" height="32" fill="#fefefe" stroke="#ffffff" stroke-width="1"/>
<rect x="698" y="210" width="32" height="32" fill="#fdfdfe" stroke="#ffffff" stroke-width="1"/>
<rect x="730" y="210" width="32" height="32" fill="#fdfdfe" stroke="#ffffff" stroke-width="1"/>
<rect x="762" y="210" width="32" height="32" fill="#fefefe" stroke="#ffffff" stroke-width="1"/>
<rect x="794" y="210" width="32" height="32" fill="#fefefe" stroke="#ffffff" stroke-width="1"/>
<rect x="826" y="210" width="32" height="32" fill="#fefefe" stroke="#ffffff" stroke-width="1"/>
<rect x="858" y="210" width="32" height="32" fill="#fefefe" stroke="#ffffff" stroke-width="1"/>
<rect x="250" y="242" width="32" height="32" fill="#b31c2e" stroke="#ffffff" stroke-width="1"/>
<rect x="282" y="242" width="32" height="32" fill="#b2182b" stroke="#ffffff" stroke-width="1"/>
<rect x="314" y="242" width="32" height="32" fill="#b2182b" stroke="#ffffff" stroke-width="1"/>
<rect x="346" y="242" width="32" height="32" fill="#fcf8f8" stroke="#ffffff" stroke-width="1"/>
<rect x="378" y="242" width="32" height="32" fill="#fdf9f9" stroke="#ffffff" stroke-width="1"/>
<rect x="410" y="242" width="32" height="32" fill="#fcf8f9" stroke="#ffffff" stroke-width="1"/>
<rect x="442" y="242" width="32" height="32" fill="#bd394a" stroke="#ffffff" stroke-width="1"/>
<rect x="474" y="242" width="32" height="32" fill="#fafbfd" stroke="#ffffff" stroke-width="1"/>
<rect x="506" y="242" width="32" height="32" fill="#fefcfc" stroke="#ffffff" stroke-width="1"/>
<rect x="538" y="242" width="32" height="32" fill="#fdfefe" stroke="#ffffff" stroke-width="1"/>
<rect x="570" y="242" width="32" height="32" fill="#fdfefe" stroke="#ffffff" stroke-width="1"/>
<rect x="602" y="242" width="32" height="32" fill="#fdfefe" stroke="#ffffff" stroke-width="1"/>
<rect x="634" y="242" width="32" height="32" fill="#fdfefe" stroke="#ffffff" stroke-width="1"/>
<rect x="666" y="242" width="32" height="32" fill="#fefefe" stroke="#ffffff" stroke-width="1"/>
<rect x="698" y="242" width="32" height="32" fill="#fcfdfe" stroke="#ffffff" stroke-width="1"/>
<rect x="730" y="242" width="32" height="32" fill="#fcfdfe" stroke="#ffffff" stroke-width="1"/>
<rect x="762" y="242" width="32" height="32" fill="#fefefe" stroke="#ffffff" stroke-width="1"/>
<rect x="794" y="242" width="32" height="32" fill="#fcfdfe" stroke="#ffffff" stroke-width="1"/>
<rect x="826" y="242" width="32" height="32" fill="#fdfafa" stroke="#ffffff" stroke-width="1"/>
<rect x="858" y="242" width="32" height="32" fill="#fbfcfd" stroke="#ffffff" stroke-width="1"/>
<rect x="250" y="274" width="32" height="32" fill="#b31c2e" stroke="#ffffff" stroke-width="1"/>
<rect x="282" y="274" width="32" height="32" fill="#b2182b" stroke="#ffffff" stroke-width="1"/>
<rect x="314" y="274" width="32" height="32" fill="#b2182b" stroke="#ffffff" stroke-width="1"/>
<rect x="346" y="274" width="32" height="32" fill="#fcf8f9" stroke="#ffffff" stroke-width="1"/>
<rect x="378" y="274" width="32" height="32" fill="#fdfafa" stroke="#ffffff" stroke-width="1"/>
<rect x="410" y="274" width="32" height="32" fill="#fdf9f9" stroke="#ffffff" stroke-width="1"/>
<rect x="442" y="274" width="32" height="32" fill="#bd3949" stroke="#ffffff" stroke-width="1"/>
<rect x="474" y="274" width="32" height="32" fill="#f9fbfd" stroke="#ffffff" stroke-width="1"/>
<rect x="506" y="274" width="32" height="32" fill="#fefcfd" stroke="#ffffff" stroke-width="1"/>
<rect x="538" y="274" width="32" height="32" fill="#fdfefe" stroke="#ffffff" stroke-width="1"/>
<rect x="570" y="274" width="32" height="32" fill="#fdfefe" stroke="#ffffff" stroke-width="1"/>
<rect x="602" y="274" width="32" height="32" fill="#fdfefe" stroke="#ffffff" stroke-width="1"/>
<rect x="634" y="274" width="32" height="32" fill="#fdfefe" stroke="#ffffff" stroke-width="1"/>
<rect x="666" y="274" width="32" height="32" fill="#fdfefe" stroke="#ffffff" stroke-width="1"/>
<rect x="698" y="274" width="32" height="32" fill="#fbfcfd" stroke="#ffffff" stroke-width="1"/>
<rect x="730" y="274" width="32" height="32" fill="#fbfcfd" stroke="#ffffff" stroke-width="1"/>
<rect x="762" y="274" width="32" height="32" fill="#fefefe" stroke="#ffffff" stroke-width="1"/>
<rect x="794" y="274" width="32" height="32" fill="#fcfdfe" stroke="#ffffff" stroke-width="1"/>
<rect x="826" y="274" width="32" height="32" fill="#fdfafb" stroke="#ffffff" stroke-width="1"/>
<rect x="858" y="274" width="32" height="32" fill="#fbfcfd" stroke="#ffffff" stroke-width="1"/>
<rect x="250" y="306" width="32" height="32" fill="#fdfefe" stroke="#ffffff" stroke-width="1"/>
<rect x="282" y="306" width="32" height="32" fill="#fcf8f8" stroke="#ffffff" stroke-width="1"/>
<rect x="314" y="306" width="32" height="32" fill="#fcf8f9" stroke="#ffffff" stroke-width="1"/>
<rect x="346" y="306" width="32" height="32" fill="#b2182b" stroke="#ffffff" stroke-width="1"/>
<rect x="378" y="306" width="32" height="32" fill="#b2192c" stroke="#ffffff" stroke-width="1"/>
<rect x="410" y="306" width="32" height="32" fill="#b21a2d" stroke="#ffffff" stroke-width="1"/>
<rect x="442" y="306" width="32" height="32" fill="#fdfdfe" stroke="#ffffff" stroke-width="1"/>
<rect x="474" y="306" width="32" height="32" fill="#b7cae7" stroke="#ffffff" stroke-width="1"/>
<rect x="506" y="306" width="32" height="32" fill="#bf4050" stroke="#ffffff" stroke-width="1"/>
<rect x="538" y="306" width="32" height="32" fill="#eff3f9" stroke="#ffffff" stroke-width="1"/>
<rect x="570" y="306" width="32" height="32" fill="#e5ecf6" stroke="#ffffff" stroke-width="1"/>
<rect x="602" y="306" width="32" height="32" fill="#e1e9f5" stroke="#ffffff" stroke-width="1"/>
<rect x="634" y="306" width="32" height="32" fill="#e2e9f5" stroke="#ffffff" stroke-width="1"/>
<rect x="666" y="306" width="32" height="32" fill="#e7edf7" stroke="#ffffff" stroke-width="1"/>
<rect x="698" y="306" width="32" height="32" fill="#e0a4ac" stroke="#ffffff" stroke-width="1"/>
<rect x="730" y="306" width="32" height="32" fill="#e0a4ac" stroke="#ffffff" stroke-width="1"/>
<rect x="762" y="306" width="32" height="32" fill="#f8fafc" stroke="#ffffff" stroke-width="1"/>
<rect x="794" y="306" width="32" height="32" fill="#d6e0f1" stroke="#ffffff" stroke-width="1"/>
<rect x="826" y="306" width="32" height="32" fill="#cf717d" stroke="#ffffff" stroke-width="1"/>
<rect x="858" y="306" width="32" height="32" fill="#c3d3eb" stroke="#ffffff" stroke-width="1"/>
<rect x="250" y="338" width="32" height="32" fill="#fdfefe" stroke="#ffffff" stroke-width="1"/>
<rect x="282" y="338" width="32" height="32" fill="#fdf9f9" stroke="#ffffff" stroke-width="1"/>
<rect x="314" y="338" width="32" height="32" fill="#fdfafa" stroke="#ffffff" stroke-width="1"/>
<rect x="346" y="338" width="32" height="32" fill="#b2192c" stroke="#ffffff" stroke-width="1"/>
<rect x="378" y="338" width="32" height="32" fill="#b2182b" stroke="#ffffff" stroke-width="1"/>
<rect x="410" y="338" width="32" height="32" fill="#b31b2e" stroke="#ffffff" stroke-width="1"/>
<rect x="442" y="338" width="32" height="32" fill="#fdfdfe" stroke="#ffffff" stroke-width="1"/>
<rect x="474" y="338" width="32" height="32" fill="#b9cbe7" stroke="#ffffff" stroke-width="1"/>
<rect x="506" y="338" width="32" height="32" fill="#be3d4d" stroke="#ffffff" stroke-width="1"/>
<rect x="538" y="338" width="32" height="32" fill="#eff3f9" stroke="#ffffff" stroke-width="1"/>
<rect x="570" y="338" width="32" height="32" fill="#f4f7fb" stroke="#ffffff" stroke-width="1"/>
<rect x="602" y="338" width="32" height="32" fill="#f2f5fa" stroke="#ffffff" stroke-width="1"/>
<rect x="634" y="338" width="32" height="32" fill="#f1f5fa" stroke="#ffffff" stroke-width="1"/>
<rect x="666" y="338" width="32" height="32" fill="#f8fafc" stroke="#ffffff" stroke-width="1"/>
<rect x="698" y="338" width="32" height="32" fill="#dfa1a8" stroke="#ffffff" stroke-width="1"/>
<rect x="730" y="338" width="32" height="32" fill="#dfa0a8" stroke="#ffffff" stroke-width="1"/>
<rect x="762" y="338" width="32" height="32" fill="#fdf9f9" stroke="#ffffff" stroke-width="1"/>
<rect x="794" y="338" width="32" height="32" fill="#d7e2f1" stroke="#ffffff" stroke-width="1"/>
<rect x="826" y="338" width="32" height="32" fill="#d0737f" stroke="#ffffff" stroke-width="1"/>
<rect x="858" y="338" width="32" height="32" fill="#c8d6ec" stroke="#ffffff" stroke-width="1"/>
<rect x="250" y="370" width="32" height="32" fill="#fefefe" stroke="#ffffff" stroke-width="1"/>
<rect x="282" y="370" width="32" height="32" fill="#fcf8f9" stroke="#ffffff" stroke-width="1"/>
<rect x="314" y="370" width="32" height="32" fill="#fdf9f9" stroke="#ffffff" stroke-width="1"/>
<rect x="346" y="370" width="32" height="32" fill="#b21a2d" stroke="#ffffff" stroke-width="1"/>
<rect x="378" y="370" width="32" height="32" fill="#b31b2e" stroke="#ffffff" stroke-width="1"/>
<rect x="410" y="370" width="32" height="32" fill="#b2182b" stroke="#ffffff" stroke-width="1"/>
<rect x="442" y="370" width="32" height="32" fill="#fdfdfe" stroke="#ffffff" stroke-width="1"/>
<rect x="474" y="370" width="32" height="32" fill="#b8cbe7" stroke="#ffffff" stroke-width="1"/>
<rect x="506" y="370" width="32" height="32" fill="#bf4050" stroke="#ffffff" stroke-width="1"/>
<rect x="538" y="370" width="32" height="32" fill="#f0f4fa" stroke="#ffffff" stroke-width="1"/>
<rect x="570" y="370" width="32" height="32" fill="#e2e9f5" stroke="#ffffff" stroke-width="1"/>
<rect x="602" y="370" width="32" height="32" fill="#dee7f4" stroke="#ffffff" stroke-width="1"/>
<rect x="634" y="370" width="32" height="32" fill="#dfe7f4" stroke="#ffffff" stroke-width="1"/>
<rect x="666" y="370" width="32" height="32" fill="#e3ebf5" stroke="#ffffff" stroke-width="1"/>
<rect x="698" y="370" width="32" height="32" fill="#e0a2aa" stroke="#ffffff" stroke-width="1"/>
<rect x="730" y="370" width="32" height="32" fill="#e0a2a9" stroke="#ffffff" stroke-width="1"/>
<rect x="762" y="370" width="32" height="32" fill="#f3f6fb" stroke="#ffffff" stroke-width="1"/>
<rect x="794" y="370" width="32" height="32" fill="#d2ddf0" stroke="#ffffff" stroke-width="1"/>
<rect x="826" y="370" width="32" height="32" fill="#d17681" stroke="#ffffff" stroke-width="1"/>
<rect x="858" y="370" width="32" height="32" fill="#c3d2eb" stroke="#ffffff" stroke-width="1"/>
<rect x="250" y="402" width="32" height="32" fill="#bc3747" stroke="#ffffff" stroke-width="1"/>
<rect x="282" y="402" width="32" height="32" fill="#bd394a" stroke="#ffffff" stroke-width="1"/>
<rect x="314" y="402" width="32" height="32" fill="#bd3949" stroke="#ffffff" stroke-width="1"/>
<rect x="346" y="402" width="32" height="32" fill="#fdfdfe" stroke="#ffffff" stroke-width="1"/>
<rect x="378" y="402" width="32" height="32" fill="#fdfdfe" stroke="#ffffff" stroke-width="1"/>
<rect x="410" y="402" width="32" height="32" fill="#fdfdfe" stroke="#ffffff" stroke-width="1"/>
<rect x="442" y="402" width="32" height="32" fill="#b2182b" stroke="#ffffff" stroke-width="1"/>
<rect x="474" y="402" width="32" height="32" fill="#fefefe" stroke="#ffffff" stroke-width="1"/>
<rect x="506" y="402" width="32" height="32" fill="#fdfefe" stroke="#ffffff" stroke-width="1"/>
<rect x="538" y="402" width="32" height="32" fill="#fefefe" stroke="#ffffff" stroke-width="1"/>
<rect x="570" y="402" width="32" height="32" fill="#fefefe" stroke="#ffffff" stroke-width="1"/>
<rect x="602" y="402" width="32" height="32" fill="#fefefe" stroke="#ffffff" stroke-width="1"/>
<rect x="634" y="402" width="32" height="32" fill="#fefefe" stroke="#ffffff" stroke-width="1"/>
<rect x="666" y="402" width="32" height="32" fill="#fefefe" stroke="#ffffff" stroke-width="1"/>
<rect x="698" y="402" width="32" height="32" fill="#fdfdfe" stroke="#ffffff" stroke-width="1"/>
<rect x="730" y="402" width="32" height="32" fill="#fdfdfe" stroke="#ffffff" stroke-width="1"/>
<rect x="762" y="402" width="32" height="32" fill="#fefefe" stroke="#ffffff" stroke-width="1"/>
<rect x="794" y="402" width="32" height="32" fill="#fefefe" stroke="#ffffff" stroke-width="1"/>
<rect x="826" y="402" width="32" height="32" fill="#fefefe" stroke="#ffffff" stroke-width="1"/>
<rect x="858" y="402" width="32" height="32" fill="#fefefe" stroke="#ffffff" stroke-width="1"/>
<rect x="250" y="434" width="32" height="32" fill="#fefefe" stroke="#ffffff" stroke-width="1"/>
<rect x="282" y="434" width="32" height="32" fill="#fafbfd" stroke="#ffffff" stroke-width="1"/>
<rect x="314" y="434" width="32" height="32" fill="#f9fbfd" stroke="#ffffff" stroke-width="1"/>
<rect x="346" y="434" width="32" height="32" fill="#b7cae7" stroke="#ffffff" stroke-width="1"/>
<rect x="378" y="434" width="32" height="32" fill="#b9cbe7" stroke="#ffffff" stroke-width="1"/>
<rect x="410" y="434" width="32" height="32" fill="#b8cbe7" stroke="#ffffff" stroke-width="1"/>
<rect x="442" y="434" width="32" height="32" fill="#fefefe" stroke="#ffffff" stroke-width="1"/>
<rect x="474" y="434" width="32" height="32" fill="#b2182b" stroke="#ffffff" stroke-width="1"/>
<rect x="506" y="434" width="32" height="32" fill="#c9d7ed" stroke="#ffffff" stroke-width="1"/>
<rect x="538" y="434" width="32" height="32" fill="#fcf6f7" stroke="#ffffff" stroke-width="1"/>
<rect x="570" y="434" width="32" height="32" fill="#fdfbfc" stroke="#ffffff" stroke-width="1"/>
<rect x="602" y="434" width="32" height="32" fill="#fefefe" stroke="#ffffff" stroke-width="1"/>
<rect x="634" y="434" width="32" height="32" fill="#fefefe" stroke="#ffffff" stroke-width="1"/>
<rect x="666" y="434" width="32" height="32" fill="#fdfbfb" stroke="#ffffff" stroke-width="1"/>
<rect x="698" y="434" width="32" height="32" fill="#e6ecf6" stroke="#ffffff" stroke-width="1"/>
<rect x="730" y="434" width="32" height="32" fill="#e3eaf5" stroke="#ffffff" stroke-width="1"/>
<rect x="762" y="434" width="32" height="32" fill="#fcf8f8" stroke="#ffffff" stroke-width="1"/>
<rect x="794" y="434" width="32" height="32" fill="#ebc4c9" stroke="#ffffff" stroke-width="1"/>
<rect x="826" y="434" width="32" height="32" fill="#d3dff0" stroke="#ffffff" stroke-width="1"/>
<rect x="858" y="434" width="32" height="32" fill="#f4dfe2" stroke="#ffffff" stroke-width="1"/>
<rect x="250" y="466" width="32" height="32" fill="#fdfefe" stroke="#ffffff" stroke-width="1"/>
<rect x="282" y="466" width="32" height="32" fill="#fefcfc" stroke="#ffffff" stroke-width="1"/>
<rect x="314" y="466" width="32" height="32" fill="#fefcfd" stroke="#ffffff" stroke-width="1"/>
<rect x="346" y="466" width="32" height="32" fill="#bf4050" stroke="#ffffff" stroke-width="1"/>
<rect x="378" y="466" width="32" height="32" fill="#be3d4d" stroke="#ffffff" stroke-width="1"/>
<rect x="410" y="466" width="32" height="32" fill="#bf4050" stroke="#ffffff" stroke-width="1"/>
<rect x="442" y="466" width="32" height="32" fill="#fdfefe" stroke="#ffffff" stroke-width="1"/>
<rect x="474" y="466" width="32" height="32" fill="#c9d7ed" stroke="#ffffff" stroke-width="1"/>
<rect x="506" y="466" width="32" height="32" fill="#b2182b" stroke="#ffffff" stroke-width="1"/>
<rect x="538" y="466" width="32" height="32" fill="#f3f6fb" stroke="#ffffff" stroke-width="1"/>
<rect x="570" y="466" width="32" height="32" fill="#e9eff7" stroke="#ffffff" stroke-width="1"/>
<rect x="602" y="466" width="32" height="32" fill="#e6ecf6" stroke="#ffffff" stroke-width="1"/>
<rect x="634" y="466" width="32" height="32" fill="#e6edf6" stroke="#ffffff" stroke-width="1"/>
<rect x="666" y="466" width="32" height="32" fill="#eaeff8" stroke="#ffffff" stroke-width="1"/>
<rect x="698" y="466" width="32" height="32" fill="#cc6774" stroke="#ffffff" stroke-width="1"/>
<rect x="730" y="466" width="32" height="32" fill="#cb6471" stroke="#ffffff" stroke-width="1"/>
<rect x="762" y="466" width="32" height="32" fill="#f6f8fc" stroke="#ffffff" stroke-width="1"/>
<rect x="794" y="466" width="32" height="32" fill="#dde6f3" stroke="#ffffff" stroke-width="1"/>
<rect x="826" y="466" width="32" height="32" fill="#d98d96" stroke="#ffffff" stroke-width="1"/>
<rect x="858" y="466" width="32" height="32" fill="#d0dcef" stroke="#ffffff" stroke-width="1"/>
<rect x="250" y="498" width="32" height="32" fill="#fefefe" stroke="#ffffff" stroke-width="1"/>
<rect x="282" y="498" width="32" height="32" fill="#fdfefe" stroke="#ffffff" stroke-width="1"/>
<rect x="314" y="498" width="32" height="32" fill="#fdfefe" stroke="#ffffff" stroke-width="1"/>
<rect x="346" y="498" width="32" height="32" fill="#eff3f9" stroke="#ffffff" stroke-width="1"/>
<rect x="378" y="498" width="32" height="32" fill="#eff3f9" stroke="#ffffff" stroke-width="1"/>
<rect x="410" y="498" width="32" height="32" fill="#f0f4fa" stroke="#ffffff" stroke-width="1"/>
<rect x="442" y="498" width="32" height="32" fill="#fefefe" stroke="#ffffff" stroke-width="1"/>
<rect x="474" y="498" width="32" height="32" fill="#fcf6f7" stroke="#ffffff" stroke-width="1"/>
<rect x="506" y="498" width="32" height="32" fill="#f3f6fb" stroke="#ffffff" stroke-width="1"/>
<rect x="538" y="498" width="32" height="32" fill="#b2182b" stroke="#ffffff" stroke-width="1"/>
<rect x="570" y="498" width="32" height="32" fill="#fcfdfe" stroke="#ffffff" stroke-width="1"/>
<rect x="602" y="498" width="32" height="32" fill="#fcfdfe" stroke="#ffffff" stroke-width="1"/>
<rect x="634" y="498" width="32" height="32" fill="#fcfcfe" stroke="#ffffff" stroke-width="1"/>
<rect x="666" y="498" width="32" height="32" fill="#fcfdfe" stroke="#ffffff" stroke-width="1"/>
<rect x="698" y="498" width="32" height="32" fill="#fefefe" stroke="#ffffff" stroke-width="1"/>
<rect x="730" y="498" width="32" height="32" fill="#f7f9fc" stroke="#ffffff" stroke-width="1"/>
<rect x="762" y="498" width="32" height="32" fill="#fdfefe" stroke="#ffffff" stroke-width="1"/>
<rect x="794" y="498" width="32" height="32" fill="#f2dadd" stroke="#ffffff" stroke-width="1"/>
<rect x="826" y="498" width="32" height="32" fill="#f4f7fb" stroke="#ffffff" stroke-width="1"/>
<rect x="858" y="498" width="32" height="32" fill="#eeccd0" stroke="#ffffff" stroke-width="1"/>
<rect x="250" y="530" width="32" height="32" fill="#fefefe" stroke="#ffffff" stroke-width="1"/>
<rect x="282" y="530" width="32" height="32" fill="#fdfefe" stroke="#ffffff" stroke-width="1"/>
<rect x="314" y="530" width="32" height="32" fill="#fdfefe" stroke="#ffffff" stroke-width="1"/>
<rect x="346" y="530" width="32" height="32" fill="#e5ecf6" stroke="#ffffff" stroke-width="1"/>
<rect x="378" y="530" width="32" height="32" fill="#f4f7fb" stroke="#ffffff" stroke-width="1"/>
<rect x="410" y="530" width="32" height="32" fill="#e2e9f5" stroke="#ffffff" stroke-width="1"/>
<rect x="442" y="530" width="32" height="32" fill="#fefefe" stroke="#ffffff" stroke-width="1"/>
<rect x="474" y="530" width="32" height="32" fill="#fdfbfc" stroke="#ffffff" stroke-width="1"/>
<rect x="506" y="530" width="32" height="32" fill="#e9eff7" stroke="#ffffff" stroke-width="1"/>
<rect x="538" y="530" width="32" height="32" fill="#fcfdfe" stroke="#ffffff" stroke-width="1"/>
<rect x="570" y="530" width="32" height="32" fill="#b2182b" stroke="#ffffff" stroke-width="1"/>
<rect x="602" y="530" width="32" height="32" fill="#b82a3c" stroke="#ffffff" stroke-width="1"/>
<rect x="634" y="530" width="32" height="32" fill="#b31c2f" stroke="#ffffff" stroke-width="1"/>
<rect x="666" y="530" width="32" height="32" fill="#b92d3e" stroke="#ffffff" stroke-width="1"/>
<rect x="698" y="530" width="32" height="32" fill="#dfe7f4" stroke="#ffffff" stroke-width="1"/>
<rect x="730" y="530" width="32" height="32" fill="#e0e8f4" stroke="#ffffff" stroke-width="1"/>
<rect x="762" y="530" width="32" height="32" fill="#c04251" stroke="#ffffff" stroke-width="1"/>
<rect x="794" y="530" width="32" height="32" fill="#efd1d5" stroke="#ffffff" stroke-width="1"/>
<rect x="826" y="530" width="32" height="32" fill="#fafbfd" stroke="#ffffff" stroke-width="1"/>
<rect x="858" y="530" width="32" height="32" fill="#f3dcdf" stroke="#ffffff" stroke-width="1"/>
<rect x="250" y="562" width="32" height="32" fill="#fefefe" stroke="#ffffff" stroke-width="1"/>
<rect x="282" y="562" width="32" height="32" fill="#fdfefe" stroke="#ffffff" stroke-width="1"/>
<rect x="314" y="562" width="32" height="32" fill="#fdfefe" stroke="#ffffff" stroke-width="1"/>
<rect x="346" y="562" width="32" height="32" fill="#e1e9f5" stroke="#ffffff" stroke-width="1"/>
<rect x="378" y="562" width="32" height="32" fill="#f2f5fa" stroke="#ffffff" stroke-width="1"/>
<rect x="410" y="562" width="32" height="32" fill="#dee7f4" stroke="#ffffff" stroke-width="1"/>
<rect x="442" y="562" width="32" height="32" fill="#fefefe" stroke="#ffffff" stroke-width="1"/>
<rect x="474" y="562" width="32" height="32" fill="#fefefe" stroke="#ffffff" stroke-width="1"/>
<rect x="506" y="562" width="32" height="32" fill="#e6ecf6" stroke="#ffffff" stroke-width="1"/>
<rect x="538" y="562" width="32" height="32" fill="#fcfdfe" stroke="#ffffff" stroke-width="1"/>
<rect x="570" y="562" width="32" height="32" fill="#b82a3c" stroke="#ffffff" stroke-width="1"/>
<rect x="602" y="562" width="32" height="32" fill="#b2182b" stroke="#ffffff" stroke-width="1"/>
<rect x="634" y="562" width="32" height="32" fill="#b62638" stroke="#ffffff" stroke-width="1"/>
<rect x="666" y="562" width="32" height="32" fill="#b21a2d" stroke="#ffffff" stroke-width="1"/>
<rect x="698" y="562" width="32" height="32" fill="#dae3f2" stroke="#ffffff" stroke-width="1"/>
<rect x="730" y="562" width="32" height="32" fill="#dbe5f3" stroke="#ffffff" stroke-width="1"/>
<rect x="762" y="562" width="32" height="32" fill="#c75865" stroke="#ffffff" stroke-width="1"/>
<rect x="794" y="562" width="32" height="32" fill="#f0d4d7" stroke="#ffffff" stroke-width="1"/>
<rect x="826" y="562" width="32" height="32" fill="#f7f9fc" stroke="#ffffff" stroke-width="1"/>
<rect x="858" y="562" width="32" height="32" fill="#ecc8cc" stroke="#ffffff" stroke-width="1"/>
<rect x="250" y="594" width="32" height="32" fill="#fefefe" stroke="#ffffff" stroke-width="1"/>
<rect x="282" y="594" width="32" height="32" fill="#fdfefe" stroke="#ffffff" stroke-width="1"/>
<rect x="314" y="594" width="32" height="32" fill="#fdfefe" stroke="#ffffff" stroke-width="1"/>
<rect x="346" y="594" width="32" height="32" fill="#e2e9f5" stroke="#ffffff" stroke-width="1"/>
<rect x="378" y="594" width="32" height="32" fill="#f1f5fa" stroke="#ffffff" stroke-width="1"/>
<rect x="410" y="594" width="32" height="32" fill="#dfe7f4" stroke="#ffffff" stroke-width="1"/>
<rect x="442" y="594" width="32" height="32" fill="#fefefe" stroke="#ffffff" stroke-width="1"/>
<rect x="474" y="594" width="32" height="32" fill="#fefefe" stroke="#ffffff" stroke-width="1"/>
<rect x="506" y="594" width="32" height="32" fill="#e6edf6" stroke="#ffffff" stroke-width="1"/>
<rect x="538" y="594" width="32" height="32" fill="#fcfcfe" stroke="#ffffff" stroke-width="1"/>
<rect x="570" y="594" width="32" height="32" fill="#b31c2f" stroke="#ffffff" stroke-width="1"/>
<rect x="602" y="594" width="32" height="32" fill="#b62638" stroke="#ffffff" stroke-width="1"/>
<rect x="634" y="594" width="32" height="32" fill="#b2182b" stroke="#ffffff" stroke-width="1"/>
<rect x="666" y="594" width="32" height="32" fill="#b82a3c" stroke="#ffffff" stroke-width="1"/>
<rect x="698" y="594" width="32" height="32" fill="#dbe4f3" stroke="#ffffff" stroke-width="1"/>
<rect x="730" y="594" width="32" height="32" fill="#dce5f3" stroke="#ffffff" stroke-width="1"/>
<rect x="762" y="594" width="32" height="32" fill="#c34d5b" stroke="#ffffff" stroke-width="1"/>
<rect x="794" y="594" width="32" height="32" fill="#f0d3d7" stroke="#ffffff" stroke-width="1"/>
<rect x="826" y="594" width="32" height="32" fill="#f8fafd" stroke="#ffffff" stroke-width="1"/>
<rect x="858" y="594" width="32" height="32" fill="#f1d6d9" stroke="#ffffff" stroke-width="1"/>
<rect x="250" y="626" width="32" height="32" fill="#fefefe" stroke="#ffffff" stroke-width="1"/>
<rect x="282" y="626" width="32" height="32" fill="#fefefe" stroke="#ffffff" stroke-width="1"/>
<rect x="314" y="626" width="32" height="32" fill="#fdfefe" stroke="#ffffff" stroke-width="1"/>
<rect x="346" y="626" width="32" height="32" fill="#e7edf7" stroke="#ffffff" stroke-width="1"/>
<rect x="378" y="626" width="32" height="32" fill="#f8fafc" stroke="#ffffff" stroke-width="1"/>
<rect x="410" y="626" width="32" height="32" fill="#e3ebf5" stroke="#ffffff" stroke-width="1"/>
<rect x="442" y="626" width="32" height="32" fill="#fefefe" stroke="#ffffff" stroke-width="1"/>
<rect x="474" y="626" width="32" height="32" fill="#fdfbfb" stroke="#ffffff" stroke-width="1"/>
<rect x="506" y="626" width="32" height="32" fill="#eaeff8" stroke="#ffffff" stroke-width="1"/>
<rect x="538" y="626" width="32" height="32" fill="#fcfdfe" stroke="#ffffff" stroke-width="1"/>
<rect x="570" y="626" width="32" height="32" fill="#b92d3e" stroke="#ffffff" stroke-width="1"/>
<rect x="602" y="626" width="32" height="32" fill="#b21a2d" stroke="#ffffff" stroke-width="1"/>
<rect x="634" y="626" width="32" height="32" fill="#b82a3c" stroke="#ffffff" stroke-width="1"/>
<rect x="666" y="626" width="32" height="32" fill="#b2182b" stroke="#ffffff" stroke-width="1"/>
<rect x="698" y="626" width="32" height="32" fill="#e0e8f4" stroke="#ffffff" stroke-width="1"/>
<rect x="730" y="626" width="32" height="32" fill="#e1e9f5" stroke="#ffffff" stroke-width="1"/>
<rect x="762" y="626" width="32" height="32" fill="#c65664" stroke="#ffffff" stroke-width="1"/>
<rect x="794" y="626" width="32" height="32" fill="#f0d2d5" stroke="#ffffff" stroke-width="1"/>
<rect x="826" y="626" width="32" height="32" fill="#fafbfd" stroke="#ffffff" stroke-width="1"/>
<rect x="858" y="626" width="32" height="32" fill="#ecc6cb" stroke="#ffffff" stroke-width="1"/>
<rect x="250" y="658" width="32" height="32" fill="#fdfdfe" stroke="#ffffff" stroke-width="1"/>
<rect x="282" y="658" width="32" height="32" fill="#fcfdfe" stroke="#ffffff" stroke-width="1"/>
<rect x="314" y="658" width="32" height="32" fill="#fbfcfd" stroke="#ffffff" stroke-width="1"/>
<rect x="346" y="658" width="32" height="32" fill="#e0a4ac" stroke="#ffffff" stroke-width="1"/>
<rect x="378" y="658" width="32" height="32" fill="#dfa1a8" stroke="#ffffff" stroke-width="1"/>
<rect x="410" y="658" width="32" height="32" fill="#e0a2aa" stroke="#ffffff" stroke-width="1"/>
<rect x="442" y="658" width="32" height="32" fill="#fdfdfe" stroke="#ffffff" stroke-width="1"/>
<rect x="474" y="658" width="32" height="32" fill="#e6ecf6" stroke="#ffffff" stroke-width="1"/>
<rect x="506" y="658" width="32" height="32" fill="#cc6774" stroke="#ffffff" stroke-width="1"/>
<rect x="538" y="658" width="32" height="32" fill="#fefefe" stroke="#ffffff" stroke-width="1"/>
<rect x="570" y="658" width="32" height="32" fill="#dfe7f4" stroke="#ffffff" stroke-width="1"/>
<rect x="602" y="658" width="32" height="32" fill="#dae3f2" stroke="#ffffff" stroke-width="1"/>
<rect x="634" y="658" width="32" height="32" fill="#dbe4f3" stroke="#ffffff" stroke-width="1"/>
<rect x="666" y="658" width="32" height="32" fill="#e0e8f4" stroke="#ffffff" stroke-width="1"/>
<rect x="698" y="658" width="32" height="32" fill="#b2182b" stroke="#ffffff" stroke-width="1"/>
<rect x="730" y="658" width="32" height="32" fill="#b31b2e" stroke="#ffffff" stroke-width="1"/>
<rect x="762" y="658" width="32" height="32" fill="#f1f5fa" stroke="#ffffff" stroke-width="1"/>
<rect x="794" y="658" width="32" height="32" fill="#dde6f3" stroke="#ffffff" stroke-width="1"/>
<rect x="826" y="658" width="32" height="32" fill="#efcfd3" stroke="#ffffff" stroke-width="1"/>
<rect x="858" y="658" width="32" height="32" fill="#becfe9" stroke="#ffffff" stroke-width="1"/>
<rect x="250" y="690" width="32" height="32" fill="#fdfdfe" stroke="#ffffff" stroke-width="1"/>
<rect x="282" y="690" width="32" height="32" fill="#fcfdfe" stroke="#ffffff" stroke-width="1"/>
<rect x="314" y="690" width="32" height="32" fill="#fbfcfd" stroke="#ffffff" stroke-width="1"/>
<rect x="346" y="690" width="32" height="32" fill="#e0a4ac" stroke="#ffffff" stroke-width="1"/>
<rect x="378" y="690" width="32" height="32" fill="#dfa0a8" stroke="#ffffff" stroke-width="1"/>
<rect x="410" y="690" width="32" height="32" fill="#e0a2a9" stroke="#ffffff" stroke-width="1"/>
<rect x="442" y="690" width="32" height="32" fill="#fdfdfe" stroke="#ffffff" stroke-width="1"/>
<rect x="474" y="690" width="32" height="32" fill="#e3eaf5" stroke="#ffffff" stroke-width="1"/>
<rect x="506" y="690" width="32" height="32" fill="#cb6471" stroke="#ffffff" stroke-width="1"/>
<rect x="538" y="690" width="32" height="32" fill="#f7f9fc" stroke="#ffffff" stroke-width="1"/>
<rect x="570" y="690" width="32" height="32" fill="#e0e8f4" stroke="#ffffff" stroke-width="1"/>
<rect x="602" y="690" width="32" height="32" fill="#dbe5f3" stroke="#ffffff" stroke-width="1"/>
<rect x="634" y="690" width="32" height="32" fill="#dce5f3" stroke="#ffffff" stroke-width="1"/>
<rect x="666" y="690" width="32" height="32" fill="#e1e9f5" stroke="#ffffff" stroke-width="1"/>
<rect x="698" y="690" width="32" height="32" fill="#b31b2e" stroke="#ffffff" stroke-width="1"/>
<rect x="730" y="690" width="32" height="32" fill="#b2182b" stroke="#ffffff" stroke-width="1"/>
<rect x="762" y="690" width="32" height="32" fill="#f2f5fa" stroke="#ffffff" stroke-width="1"/>
<rect x="794" y="690" width="32" height="32" fill="#dce5f3" stroke="#ffffff" stroke-width="1"/>
<rect x="826" y="690" width="32" height="32" fill="#eeced2" stroke="#ffffff" stroke-width="1"/>
<rect x="858" y="690" width="32" height="32" fill="#becfe9" stroke="#ffffff" stroke-width="1"/>
<rect x="250" y="722" width="32" height="32" fill="#fefefe" stroke="#ffffff" stroke-width="1"/>
<rect x="282" y="722" width="32" height="32" fill="#fefefe" stroke="#ffffff" stroke-width="1"/>
<rect x="314" y="722" width="32" height="32" fill="#fefefe" stroke="#ffffff" stroke-width="1"/>
<rect x="346" y="722" width="32" height="32" fill="#f8fafc" stroke="#ffffff" stroke-width="1"/>
<rect x="378" y="722" width="32" height="32" fill="#fdf9f9" stroke="#ffffff" stroke-width="1"/>
<rect x="410" y="722" width="32" height="32" fill="#f3f6fb" stroke="#ffffff" stroke-width="1"/>
<rect x="442" y="722" width="32" height="32" fill="#fefefe" stroke="#ffffff" stroke-width="1"/>
<rect x="474" y="722" width="32" height="32" fill="#fcf8f8" stroke="#ffffff" stroke-width="1"/>
<rect x="506" y="722" width="32" height="32" fill="#f6f8fc" stroke="#ffffff" stroke-width="1"/>
<rect x="538" y="722" width="32" height="32" fill="#fdfefe" stroke="#ffffff" stroke-width="1"/>
<rect x="570" y="722" width="32" height="32" fill="#c04251" stroke="#ffffff" stroke-width="1"/>
<rect x="602" y="722" width="32" height="32" fill="#c75865" stroke="#ffffff" stroke-width="1"/>
<rect x="634" y="722" width="32" height="32" fill="#c34d5b" stroke="#ffffff" stroke-width="1"/>
<rect x="666" y="722" width="32" height="32" fill="#c65664" stroke="#ffffff" stroke-width="1"/>
<rect x="698" y="722" width="32" height="32" fill="#f1f5fa" stroke="#ffffff" stroke-width="1"/>
<rect x="730" y="722" width="32" height="32" fill="#f2f5fa" stroke="#ffffff" stroke-width="1"/>
<rect x="762" y="722" width="32" height="32" fill="#b2182b" stroke="#ffffff" stroke-width="1"/>
<rect x="794" y="722" width="32" height="32" fill="#f9eff0" stroke="#ffffff" stroke-width="1"/>
<rect x="826" y="722" width="32" height="32" fill="#fbf4f5" stroke="#ffffff" stroke-width="1"/>
<rect x="858" y="722" width="32" height="32" fill="#f7e7e9" stroke="#ffffff" stroke-width="1"/>
<rect x="250" y="754" width="32" height="32" fill="#fefefe" stroke="#ffffff" stroke-width="1"/>
<rect x="282" y="754" width="32" height="32" fill="#fcfdfe" stroke="#ffffff" stroke-width="1"/>
<rect x="314" y="754" width="32" height="32" fill="#fcfdfe" stroke="#ffffff" stroke-width="1"/>
<rect x="346" y="754" width="32" height="32" fill="#d6e0f1" stroke="#ffffff" stroke-width="1"/>
<rect x="378" y="754" width="32" height="32" fill="#d7e2f1" stroke="#ffffff" stroke-width="1"/>
<rect x="410" y="754" width="32" height="32" fill="#d2ddf0" stroke="#ffffff" stroke-width="1"/>
<rect x="442" y="754" width="32" height="32" fill="#fefefe" stroke="#ffffff" stroke-width="1"/>
<rect x="474" y="754" width="32" height="32" fill="#ebc4c9" stroke="#ffffff" stroke-width="1"/>
<rect x="506" y="754" width="32" height="32" fill="#dde6f3" stroke="#ffffff" stroke-width="1"/>
<rect x="538" y="754" width="32" height="32" fill="#f2dadd" stroke="#ffffff" stroke-width="1"/>
<rect x="570" y="754" width="32" height="32" fill="#efd1d5" stroke="#ffffff" stroke-width="1"/>
<rect x="602" y="754" width="32" height="32" fill="#f0d4d7" stroke="#ffffff" stroke-width="1"/>
<rect x="634" y="754" width="32" height="32" fill="#f0d3d7" stroke="#ffffff" stroke-width="1"/>
<rect x="666" y="754" width="32" height="32" fill="#f0d2d5" stroke="#ffffff" stroke-width="1"/>
<rect x="698" y="754" width="32" height="32" fill="#dde6f3" stroke="#ffffff" stroke-width="1"/>
<rect x="730" y="754" width="32" height="32" fill="#dce5f3" stroke="#ffffff" stroke-width="1"/>
<rect x="762" y="754" width="32" height="32" fill="#f9eff0" stroke="#ffffff" stroke-width="1"/>
<rect x="794" y="754" width="32" height="32" fill="#b2182b" stroke="#ffffff" stroke-width="1"/>
<rect x="826" y="754" width="32" height="32" fill="#fcfdfe" stroke="#ffffff" stroke-width="1"/>
<rect x="858" y="754" width="32" height="32" fill="#f3dddf" stroke="#ffffff" stroke-width="1"/>
<rect x="250" y="786" width="32" height="32" fill="#fefefe" stroke="#ffffff" stroke-width="1"/>
<rect x="282" y="786" width="32" height="32" fill="#fdfafa" stroke="#ffffff" stroke-width="1"/>
<rect x="314" y="786" width="32" height="32" fill="#fdfafb" stroke="#ffffff" stroke-width="1"/>
<rect x="346" y="786" width="32" height="32" fill="#cf717d" stroke="#ffffff" stroke-width="1"/>
<rect x="378" y="786" width="32" height="32" fill="#d0737f" stroke="#ffffff" stroke-width="1"/>
<rect x="410" y="786" width="32" height="32" fill="#d17681" stroke="#ffffff" stroke-width="1"/>
<rect x="442" y="786" width="32" height="32" fill="#fefefe" stroke="#ffffff" stroke-width="1"/>
<rect x="474" y="786" width="32" height="32" fill="#d3dff0" stroke="#ffffff" stroke-width="1"/>
<rect x="506" y="786" width="32" height="32" fill="#d98d96" stroke="#ffffff" stroke-width="1"/>
<rect x="538" y="786" width="32" height="32" fill="#f4f7fb" stroke="#ffffff" stroke-width="1"/>
<rect x="570" y="786" width="32" height="32" fill="#fafbfd" stroke="#ffffff" stroke-width="1"/>
<rect x="602" y="786" width="32" height="32" fill="#f7f9fc" stroke="#ffffff" stroke-width="1"/>
<rect x="634" y="786" width="32" height="32" fill="#f8fafd" stroke="#ffffff" stroke-width="1"/>
<rect x="666" y="786" width="32" height="32" fill="#fafbfd" stroke="#ffffff" stroke-width="1"/>
<rect x="698" y="786" width="32" height="32" fill="#efcfd3" stroke="#ffffff" stroke-width="1"/>
<rect x="730" y="786" width="32" height="32" fill="#eeced2" stroke="#ffffff" stroke-width="1"/>
<rect x="762" y="786" width="32" height="32" fill="#fbf4f5" stroke="#ffffff" stroke-width="1"/>
<rect x="794" y="786" width="32" height="32" fill="#fcfdfe" stroke="#ffffff" stroke-width="1"/>
<rect x="826" y="786" width="32" height="32" fill="#b2182b" stroke="#ffffff" stroke-width="1"/>
<rect x="858" y="786" width="32" height="32" fill="#dce5f3" stroke="#ffffff" stroke-width="1"/>
<rect x="250" y="818" width="32" height="32" fill="#fefefe" stroke="#ffffff" stroke-width="1"/>
<rect x="282" y="818" width="32" height="32" fill="#fbfcfd" stroke="#ffffff" stroke-width="1"/>
<rect x="314" y="818" width="32" height="32" fill="#fbfcfd" stroke="#ffffff" stroke-width="1"/>
<rect x="346" y="818" width="32" height="32" fill="#c3d3eb" stroke="#ffffff" stroke-width="1"/>
<rect x="378" y="818" width="32" height="32" fill="#c8d6ec" stroke="#ffffff" stroke-width="1"/>
<rect x="410" y="818" width="32" height="32" fill="#c3d2eb" stroke="#ffffff" stroke-width="1"/>
<rect x="442" y="818" width="32" height="32" fill="#fefefe" stroke="#ffffff" stroke-width="1"/>
<rect x="474" y="818" width="32" height="32" fill="#f4dfe2" stroke="#ffffff" stroke-width="1"/>
<rect x="506" y="818" width="32" height="32" fill="#d0dcef" stroke="#ffffff" stroke-width="1"/>
<rect x="538" y="818" width="32" height="32" fill="#eeccd0" stroke="#ffffff" stroke-width="1"/>
<rect x="570" y="818" width="32" height="32" fill="#f3dcdf" stroke="#ffffff" stroke-width="1"/>
<rect x="602" y="818" width="32" height="32" fill="#ecc8cc" stroke="#ffffff" stroke-width="1"/>
<rect x="634" y="818" width="32" height="32" fill="#f1d6d9" stroke="#ffffff" stroke-width="1"/>
<rect x="666" y="818" width="32" height="32" fill="#ecc6cb" stroke="#ffffff" stroke-width="1"/>
<rect x="698" y="818" width="32" height="32" fill="#becfe9" stroke="#ffffff" stroke-width="1"/>
<rect x="730" y="818" width="32" height="32" fill="#becfe9" stroke="#ffffff" stroke-width="1"/>
<rect x="762" y="818" width="32" height="32" fill="#f7e7e9" stroke="#ffffff" stroke-width="1"/>
<rect x="794" y="818" width="32" height="32" fill="#f3dddf" stroke="#ffffff" stroke-width="1"/>
<rect x="826" y="818" width="32" height="32" fill="#dce5f3" stroke="#ffffff" stroke-width="1"/>
<rect x="858" y="818" width="32" height="32" fill="#b2182b" stroke="#ffffff" stroke-width="1"/>
<rect x="932" y="210" width="18" height="2" fill="#b2182b"/>
<rect x="932" y="212" width="18" height="2" fill="#b31c2f"/>
<rect x="932" y="214" width="18" height="2" fill="#b52133"/>
<rect x="932" y="216" width="18" height="2" fill="#b62537"/>
<rect x="932" y="218" width="18" height="2" fill="#b82a3b"/>
<rect x="932" y="220" width="18" height="2" fill="#b92f40"/>
<rect x="932" y="222" width="18" height="2" fill="#bb3344"/>
<rect x="932" y="224" width="18" height="2" fill="#bc3848"/>
<rect x="932" y="226" width="18" height="2" fill="#be3c4c"/>
<rect x="932" y="228" width="18" height="2" fill="#bf4151"/>
<rect x="932" y="230" width="18" height="2" fill="#c14655"/>
<rect x="932" y="232" width="18" height="2" fill="#c24a59"/>
<rect x="932" y="234" width="18" height="2" fill="#c44f5d"/>
<rect x="932" y="236" width="18" height="2" fill="#c65462"/>
<rect x="932" y="238" width="18" height="2" fill="#c75866"/>
<rect x="932" y="240" width="18" height="2" fill="#c95d6a"/>
<rect x="932" y="242" width="18" height="2" fill="#ca616e"/>
<rect x="932" y="244" width="18" height="2" fill="#cc6673"/>
<rect x="932" y="246" width="18" height="2" fill="#cd6b77"/>
<rect x="932" y="248" width="18" height="2" fill="#cf6f7b"/>
<rect x="932" y="250" width="18" height="2" fill="#d0747f"/>
<rect x="932" y="252" width="18" height="2" fill="#d27984"/>
<rect x="932" y="254" width="18" height="2" fill="#d37d88"/>
<rect x="932" y="256" width="18" height="2" fill="#d5828c"/>
<rect x="932" y="258" width="18" height="2" fill="#d68690"/>
<rect x="932" y="260" width="18" height="2" fill="#d88b95"/>
<rect x="932" y="262" width="18" height="2" fill="#da9099"/>
<rect x="932" y="264" width="18" height="2" fill="#db949d"/>
<rect x="932" y="266" width="18" height="2" fill="#dd99a1"/>
<rect x="932" y="268" width="18" height="2" fill="#de9da5"/>
<rect x="932" y="270" width="18" height="2" fill="#e0a2aa"/>
<rect x="932" y="272" width="18" height="2" fill="#e1a7ae"/>
<rect x="932" y="274" width="18" height="2" fill="#e3abb2"/>
<rect x="932" y="276" width="18" height="2" fill="#e4b0b6"/>
<rect x="932" y="278" width="18" height="2" fill="#e6b5bb"/>
<rect x="932" y="280" width="18" height="2" fill="#e7b9bf"/>
<rect x="932" y="282" width="18" height="2" fill="#e9bec3"/>
<rect x="932" y="284" width="18" height="2" fill="#eac2c7"/>
<rect x="932" y="286" width="18" height="2" fill="#ecc7cc"/>
<rect x="932" y="288" width="18" height="2" fill="#eeccd0"/>
<rect x="932" y="290" width="18" height="2" fill="#efd0d4"/>
<rect x="932" y="292" width="18" height="2" fill="#f1d5d8"/>
<rect x="932" y="294" width="18" height="2" fill="#f2dadd"/>
<rect x="932" y="296" width="18" height="2" fill="#f4dee1"/>
<rect x="932" y="298" width="18" height="2" fill="#f5e3e5"/>
<rect x="932" y="300" width="18" height="2" fill="#f7e7e9"/>
<rect x="932" y="302" width="18" height="2" fill="#f8ecee"/>
<rect x="932" y="304" width="18" height="2" fill="#faf1f2"/>
<rect x="932" y="306" width="18" height="2" fill="#fbf5f6"/>
<rect x="932" y="308" width="18" height="2" fill="#fdfafa"/>
<rect x="932" y="310" width="18" height="2" fill="#ffffff"/>
<rect x="932" y="312" width="18" height="2" fill="#fbfcfd"/>
<rect x="932" y="314" width="18" height="2" fill="#f7f9fc"/>
<rect x="932" y="316" width="18" height="2" fill="#f3f6fb"/>
<rect x="932" y="318" width="18" height="2" fill="#eff3f9"/>
<rect x="932" y="320" width="18" height="2" fill="#ebf0f8"/>
<rect x="932" y="322" width="18" height="2" fill="#e7edf7"/>
<rect x="932" y="324" width="18" height="2" fill="#e3ebf6"/>
<rect x="932" y="326" width="18" height="2" fill="#e0e8f4"/>
<rect x="932" y="328" width="18" height="2" fill="#dce5f3"/>
<rect x="932" y="330" width="18" height="2" fill="#d8e2f2"/>
<rect x="932" y="332" width="18" height="2" fill="#d4dff0"/>
<rect x="932" y="334" width="18" height="2" fill="#d0dcef"/>
<rect x="932" y="336" width="18" height="2" fill="#ccdaee"/>
<rect x="932" y="338" width="18" height="2" fill="#c8d7ed"/>
<rect x="932" y="340" width="18" height="2" fill="#c5d4eb"/>
<rect x="932" y="342" width="18" height="2" fill="#c1d1ea"/>
<rect x="932" y="344" width="18" height="2" fill="#bdcee9"/>
<rect x="932" y="346" width="18" height="2" fill="#b9cbe7"/>
<rect x="932" y="348" width="18" height="2" fill="#b5c9e6"/>
<rect x="932" y="350" width="18" height="2" fill="#b1c6e5"/>
<rect x="932" y="352" width="18" height="2" fill="#adc3e4"/>
<rect x="932" y="354" width="18" height="2" fill="#aac0e2"/>
<rect x="932" y="356" width="18" height="2" fill="#a6bde1"/>
<rect x="932" y="358" width="18" height="2" fill="#a2bae0"/>
<rect x="932" y="360" width="18" height="2" fill="#9eb8df"/>
<rect x="932" y="362" width="18" height="2" fill="#9ab5dd"/>
<rect x="932" y="364" width="18" height="2" fill="#96b2dc"/>
<rect x="932" y="366" width="18" height="2" fill="#92afdb"/>
<rect x="932" y="368" width="18" height="2" fill="#8facd9"/>
<rect x="932" y="370" width="18" height="2" fill="#8ba9d8"/>
<rect x="932" y="372" width="18" height="2" fill="#87a6d7"/>
<rect x="932" y="374" width="18" height="2" fill="#83a4d6"/>
<rect x="932" y="376" width="18" height="2" fill="#7fa1d4"/>
<rect x="932" y="378" width="18" height="2" fill="#7b9ed3"/>
<rect x="932" y="380" width="18" height="2" fill="#779bd2"/>
<rect x="932" y="382" width="18" height="2" fill="#7498d0"/>
<rect x="932" y="384" width="18" height="2" fill="#7095cf"/>
<rect x="932" y="386" width="18" height="2" fill="#6c93ce"/>
<rect x="932" y="388" width="18" height="2" fill="#6890cd"/>
<rect x="932" y="390" width="18" height="2" fill="#648dcb"/>
<rect x="932" y="392" width="18" height="2" fill="#608aca"/>
<rect x="932" y="394" width="18" height="2" fill="#5c87c9"/>
<rect x="932" y="396" width="18" height="2" fill="#5984c7"/>
<rect x="932" y="398" width="18" height="2" fill="#5582c6"/>
<rect x="932" y="400" width="18" height="2" fill="#517fc5"/>
<rect x="932" y="402" width="18" height="2" fill="#4d7cc4"/>
<rect x="932" y="404" width="18" height="2" fill="#4979c2"/>
<rect x="932" y="406" width="18" height="2" fill="#4576c1"/>
<rect x="932" y="408" width="18" height="2" fill="#4173c0"/>
<rect x="932" y="410" width="18" height="2" fill="#3e71bf"/>
<text class="small" x="960" y="218">+1</text>
<text class="small" x="960" y="315">0</text>
<text class="small" x="960" y="414">-1</text>
</svg>
