<svg xmlns="http://www.w3.org/2000/svg" width="1120" height="1390" viewBox="0 0 1120 1390">
<style>text{font-family:Arial,DejaVu Sans,sans-serif;fill:#1f2933}.small{font-size:12px}.label{font-size:13px}.title{font-size:22px;font-weight:700}.axis{stroke:#7b8794;stroke-width:1}.grid{stroke:#d9e2ec;stroke-width:1}</style>
<rect width="100%" height="100%" fill="#ffffff"/>
<text class="title" x="560" y="36" text-anchor="middle">Imbalance focus: minority to majority classes</text>
<text class="small" x="560" y="58" text-anchor="middle">Linear bars sorted ascending | Median class count: 13,366</text>
<line class="grid" x1="290" y1="90" x2="860" y2="90"/>
<text class="label" x="18" y="95">Infiltration</text>
<rect x="290" y="80" width="0.00" height="19" fill="#f2994a" rx="3"/>
<text class="small" x="298.00040546885003" y="95">1 (0.0000%, 1:1405780.0)</text>
<line class="grid" x1="290" y1="118" x2="860" y2="118"/>
<text class="label" x="18" y="123">Web Attack � Sql Injection</text>
<rect x="290" y="108" width="0.00" height="19" fill="#f2994a" rx="3"/>
<text class="small" x="298.00040546885003" y="123">1 (0.0000%, 1:1405780.0)</text>
<line class="grid" x1="290" y1="146" x2="860" y2="146"/>
<text class="label" x="18" y="151">SQL Injection</text>
<rect x="290" y="136" width="0.00" height="19" fill="#f2994a" rx="3"/>
<text class="small" x="298.0036492196503" y="151">9 (0.0001%, 1:156197.8)</text>
<line class="grid" x1="290" y1="174" x2="860" y2="174"/>
<text class="label" x="18" y="179">Brute Force -XSS</text>
<rect x="290" y="164" width="0.01" height="19" fill="#f2994a" rx="3"/>
<text class="small" x="298.0060820327505" y="179">15 (0.0002%, 1:93718.7)</text>
<line class="grid" x1="290" y1="202" x2="860" y2="202"/>
<text class="label" x="18" y="207">WebDDoS</text>
<rect x="290" y="192" width="0.01" height="19" fill="#f2994a" rx="3"/>
<text class="small" x="298.0133804720511" y="207">33 (0.0005%, 1:42599.4)</text>
<line class="grid" x1="290" y1="230" x2="860" y2="230"/>
<text class="label" x="18" y="235">Brute Force -Web</text>
<rect x="290" y="220" width="0.01" height="19" fill="#f2994a" rx="3"/>
<text class="small" x="298.01378594090113" y="235">34 (0.0005%, 1:41346.5)</text>
<line class="grid" x1="290" y1="258" x2="860" y2="258"/>
<text class="label" x="18" y="263">Web Attack � XSS</text>
<rect x="290" y="248" width="0.02" height="19" fill="#f2994a" rx="3"/>
<text class="small" x="298.0170296917014" y="263">42 (0.0007%, 1:33471.0)</text>
<line class="grid" x1="290" y1="286" x2="860" y2="286"/>
<text class="label" x="18" y="291">Web Attack � Brute Force</text>
<rect x="290" y="276" width="0.05" height="19" fill="#f2994a" rx="3"/>
<text class="small" x="298.0454125112037" y="291">112 (0.0018%, 1:12551.6)</text>
<line class="grid" x1="290" y1="314" x2="860" y2="314"/>
<text class="label" x="18" y="319">DDOS attack-LOIC-UDP</text>
<rect x="290" y="304" width="0.05" height="19" fill="#f2994a" rx="3"/>
<text class="small" x="298.048656262004" y="319">120 (0.0019%, 1:11714.8)</text>
<line class="grid" x1="290" y1="342" x2="860" y2="342"/>
<text class="label" x="18" y="347">UDPLag</text>
<rect x="290" y="332" width="0.05" height="19" fill="#f2994a" rx="3"/>
<text class="small" x="298.0547382947545" y="347">135 (0.0022%, 1:10413.2)</text>
<line class="grid" x1="290" y1="370" x2="860" y2="370"/>
<text class="label" x="18" y="375">DoS slowloris</text>
<rect x="290" y="360" width="0.16" height="19" fill="#f2994a" rx="3"/>
<text class="small" x="298.158132851513" y="375">390 (0.0062%, 1:3604.6)</text>
<line class="grid" x1="290" y1="398" x2="860" y2="398"/>
<text class="label" x="18" y="403">SSH-Patator</text>
<rect x="290" y="388" width="0.17" height="19" fill="#f2994a" rx="3"/>
<text class="small" x="298.16705316621375" y="403">412 (0.0066%, 1:3412.1)</text>
<line class="grid" x1="290" y1="426" x2="860" y2="426"/>
<text class="label" x="18" y="431">DoS Slowhttptest</text>
<rect x="290" y="416" width="0.17" height="19" fill="#f2994a" rx="3"/>
<text class="small" x="298.16948597931395" y="431">418 (0.0067%, 1:3363.1)</text>
<line class="grid" x1="290" y1="454" x2="860" y2="454"/>
<text class="label" x="18" y="459">FTP-Patator</text>
<rect x="290" y="444" width="0.24" height="19" fill="#f2994a" rx="3"/>
<text class="small" x="298.2351719330194" y="459">580 (0.0093%, 1:2423.8)</text>
<line class="grid" x1="290" y1="482" x2="860" y2="482"/>
<text class="label" x="18" y="487">DoS GoldenEye</text>
<rect x="290" y="472" width="0.29" height="19" fill="#f2994a" rx="3"/>
<text class="small" x="298.29274850972416" y="487">722 (0.0115%, 1:1947.1)</text>
<line class="grid" x1="290" y1="510" x2="860" y2="510"/>
<text class="label" x="18" y="515">DoS attacks-Slowloris</text>
<rect x="290" y="500" width="0.30" height="19" fill="#f2994a" rx="3"/>
<text class="small" x="298.3045071063751" y="515">751 (0.0120%, 1:1871.9)</text>
<line class="grid" x1="290" y1="538" x2="860" y2="538"/>
<text class="label" x="18" y="543">DoS attacks-GoldenEye</text>
<rect x="290" y="528" width="1.18" height="19" fill="#f2994a" rx="3"/>
<text class="small" x="299.1815362289974" y="543">2,914 (0.0465%, 1:482.4)</text>
<line class="grid" x1="290" y1="566" x2="860" y2="566"/>
<text class="label" x="18" y="571">DDoS</text>
<rect x="290" y="556" width="3.66" height="19" fill="#f2994a" rx="3"/>
<text class="small" x="301.65854543385166" y="571">9,023 (0.1440%, 1:155.8)</text>
<line class="grid" x1="290" y1="594" x2="860" y2="594"/>
<text class="label" x="18" y="599">DoS attacks-SlowHTTPTest</text>
<rect x="290" y="584" width="4.04" height="19" fill="#f2994a" rx="3"/>
<text class="small" x="302.038064277483" y="599">9,959 (0.1590%, 1:141.2)</text>
<line class="grid" x1="290" y1="622" x2="860" y2="622"/>
<text class="label" x="18" y="627">PortScan</text>
<rect x="290" y="612" width="4.50" height="19" fill="#f2994a" rx="3"/>
<text class="small" x="302.49624407802077" y="627">11,089 (0.1770%, 1:126.8)</text>
<line class="grid" x1="290" y1="650" x2="860" y2="650"/>
<text class="label" x="18" y="655">Infilteration</text>
<rect x="290" y="640" width="4.60" height="19" fill="#f2994a" rx="3"/>
<text class="small" x="302.60004410362933" y="655">11,345 (0.1811%, 1:123.9)</text>
<line class="grid" x1="290" y1="678" x2="860" y2="678"/>
<text class="label" x="18" y="683">Portmap</text>
<rect x="290" y="668" width="5.27" height="19" fill="#f2994a" rx="3"/>
<text class="small" x="303.2658239553842" y="683">12,987 (0.2073%, 1:108.2)</text>
<line class="grid" x1="290" y1="706" x2="860" y2="706"/>
<text class="label" x="18" y="711">SSH-Bruteforce</text>
<rect x="290" y="696" width="5.42" height="19" fill="#f2994a" rx="3"/>
<text class="small" x="303.4194966495469" y="711">13,366 (0.2134%, 1:105.2)</text>
<line class="grid" x1="290" y1="734" x2="860" y2="734"/>
<text class="label" x="18" y="739">FTP-BruteForce</text>
<rect x="290" y="724" width="5.50" height="19" fill="#f2994a" rx="3"/>
<text class="small" x="303.50221229495367" y="739">13,570 (0.2166%, 1:103.6)</text>
<line class="grid" x1="290" y1="762" x2="860" y2="762"/>
<text class="label" x="18" y="767">DoS Hulk</text>
<rect x="290" y="752" width="6.72" height="19" fill="#f2994a" rx="3"/>
<text class="small" x="304.7161860319538" y="767">16,564 (0.2644%, 1:84.9)</text>
<line class="grid" x1="290" y1="790" x2="860" y2="790"/>
<text class="label" x="18" y="795">Bot</text>
<rect x="290" y="780" width="8.15" height="19" fill="#f2994a" rx="3"/>
<text class="small" x="306.15154576107216" y="795">20,104 (0.3209%, 1:69.9)</text>
<line class="grid" x1="290" y1="818" x2="860" y2="818"/>
<text class="label" x="18" y="823">UDP-lag</text>
<rect x="290" y="808" width="10.49" height="19" fill="#f2994a" rx="3"/>
<text class="small" x="308.49029008806497" y="823">25,872 (0.4130%, 1:54.3)</text>
<line class="grid" x1="290" y1="846" x2="860" y2="846"/>
<text class="label" x="18" y="851">DoS attacks-Hulk</text>
<rect x="290" y="836" width="13.03" height="19" fill="#f2994a" rx="3"/>
<text class="small" x="311.02690321387416" y="851">32,128 (0.5129%, 1:43.8)</text>
<line class="grid" x1="290" y1="874" x2="860" y2="874"/>
<text class="label" x="18" y="879">DDoS attacks-LOIC-HTTP</text>
<rect x="290" y="864" width="16.31" height="19" fill="#f2994a" rx="3"/>
<text class="small" x="314.3128227745451" y="879">40,232 (0.6422%, 1:34.9)</text>
<line class="grid" x1="290" y1="902" x2="860" y2="902"/>
<text class="label" x="18" y="907">DDOS attack-HOIC</text>
<rect x="290" y="892" width="19.50" height="19" fill="#f2994a" rx="3"/>
<text class="small" x="317.50305168660816" y="907">48,100 (0.7678%, 1:29.2)</text>
<line class="grid" x1="290" y1="930" x2="860" y2="930"/>
<text class="label" x="18" y="935">DrDoS_NTP</text>
<rect x="290" y="920" width="34.10" height="19" fill="#27ae60" rx="3"/>
<text class="small" x="332.09506466161133" y="935">84,088 (1.3423%, 1:16.7)</text>
<line class="grid" x1="290" y1="958" x2="860" y2="958"/>
<text class="label" x="18" y="963">LDAP</text>
<rect x="290" y="948" width="54.17" height="19" fill="#27ae60" rx="3"/>
<text class="small" x="352.16739461366643" y="963">133,592 (2.1326%, 1:10.5)</text>
<line class="grid" x1="290" y1="986" x2="860" y2="986"/>
<text class="label" x="18" y="991">DrDoS_LDAP</text>
<rect x="290" y="976" width="61.94" height="19" fill="#27ae60" rx="3"/>
<text class="small" x="359.9377996557072" y="991">152,756 (2.4385%, 1:9.2)</text>
<line class="grid" x1="290" y1="1014" x2="860" y2="1014"/>
<text class="label" x="18" y="1019">DrDoS_SSDP</text>
<rect x="290" y="1004" width="74.03" height="19" fill="#27ae60" rx="3"/>
<text class="small" x="372.03131357680434" y="1019">182,582 (2.9146%, 1:7.7)</text>
<line class="grid" x1="290" y1="1042" x2="860" y2="1042"/>
<text class="label" x="18" y="1047">DrDoS_UDP</text>
<rect x="290" y="1032" width="88.94" height="19" fill="#27ae60" rx="3"/>
<text class="small" x="386.9408086613837" y="1047">219,353 (3.5016%, 1:6.4)</text>
<line class="grid" x1="290" y1="1070" x2="860" y2="1070"/>
<text class="label" x="18" y="1075">NetBIOS</text>
<rect x="290" y="1060" width="103.78" height="19" fill="#27ae60" rx="3"/>
<text class="small" x="401.7834013857076" y="1075">255,959 (4.0859%, 1:5.5)</text>
<line class="grid" x1="290" y1="1098" x2="860" y2="1098"/>
<text class="label" x="18" y="1103">UDP</text>
<rect x="290" y="1088" width="109.73" height="19" fill="#27ae60" rx="3"/>
<text class="small" x="407.73446769764826" y="1103">270,636 (4.3202%, 1:5.2)</text>
<line class="grid" x1="290" y1="1126" x2="860" y2="1126"/>
<text class="label" x="18" y="1131">DrDoS_NetBIOS</text>
<rect x="290" y="1116" width="116.20" height="19" fill="#27ae60" rx="3"/>
<text class="small" x="414.2012903868315" y="1131">286,585 (4.5748%, 1:4.9)</text>
<line class="grid" x1="290" y1="1154" x2="860" y2="1154"/>
<text class="label" x="18" y="1159">DrDoS_MSSQL</text>
<rect x="290" y="1144" width="128.08" height="19" fill="#27ae60" rx="3"/>
<text class="small" x="426.0750401912106" y="1159">315,869 (5.0423%, 1:4.5)</text>
<line class="grid" x1="290" y1="1182" x2="860" y2="1182"/>
<text class="label" x="18" y="1187">DrDoS_DNS</text>
<rect x="290" y="1172" width="143.90" height="19" fill="#27ae60" rx="3"/>
<text class="small" x="441.8972456572152" y="1187">354,891 (5.6652%, 1:4.0)</text>
<line class="grid" x1="290" y1="1210" x2="860" y2="1210"/>
<text class="label" x="18" y="1215">DrDoS_SNMP</text>
<rect x="290" y="1200" width="146.43" height="19" fill="#27ae60" rx="3"/>
<text class="small" x="444.4326423764743" y="1215">361,144 (5.7650%, 1:3.9)</text>
<line class="grid" x1="290" y1="1238" x2="860" y2="1238"/>
<text class="label" x="18" y="1243">MSSQL</text>
<rect x="290" y="1228" width="164.39" height="19" fill="#27ae60" rx="3"/>
<text class="small" x="462.3863975871047" y="1243">405,423 (6.4719%, 1:3.5)</text>
<line class="grid" x1="290" y1="1266" x2="860" y2="1266"/>
<text class="label" x="18" y="1271">Syn</text>
<rect x="290" y="1256" width="183.83" height="19" fill="#27ae60" rx="3"/>
<text class="small" x="481.82903441505783" y="1271">453,374 (7.2373%, 1:3.1)</text>
<line class="grid" x1="290" y1="1294" x2="860" y2="1294"/>
<text class="label" x="18" y="1299">Benign</text>
<rect x="290" y="1284" width="450.61" height="19" fill="#27ae60" rx="3"/>
<text class="small" x="748.6101025765056" y="1299">1,111,331 (17.7404%, 1:1.3)</text>
<line class="grid" x1="290" y1="1322" x2="860" y2="1322"/>
<text class="label" x="18" y="1327">TFTP</text>
<rect x="290" y="1312" width="570.00" height="19" fill="#27ae60" rx="3"/>
<text class="small" x="868.0" y="1327">1,405,780 (22.4408%, 1:1.0)</text>
</svg>
